<svg width="13" height="13" viewBox="0 0 13 13" fill="none" xmlns="http://www.w3.org/2000/svg">
<path d="M3.61836 1.05333L2.68606 0.1C1.12136 1.32 0.0912738 3.2 0 5.33333H1.30391C1.40171 3.56667 2.28837 2.02 3.61836 1.05333ZM11.6961 5.33333H13C12.9022 3.2 11.8721 1.32 10.3139 0.1L9.38817 1.05333C10.7051 2.02 11.5983 3.56667 11.6961 5.33333ZM10.4117 5.66667C10.4117 3.62 9.34253 1.90667 7.47793 1.45333V1C7.47793 0.446667 7.04112 0 6.5 0C5.95888 0 5.52207 0.446667 5.52207 1V1.45333C3.65095 1.90667 2.58826 3.61333 2.58826 5.66667V9L1.28435 10.3333V11H11.7156V10.3333L10.4117 9V5.66667ZM6.5 13C6.59127 13 6.67603 12.9933 6.76078 12.9733C7.18455 12.88 7.53009 12.5867 7.6996 12.1867C7.76479 12.0267 7.79739 11.8533 7.79739 11.6667H5.18957C5.19609 12.4 5.77633 13 6.5 13Z" fill="#D60C0C"/>
</svg>
