<svg width="15" height="20" viewBox="0 0 15 20" fill="none" xmlns="http://www.w3.org/2000/svg">
<path d="M7.42896 20C3.5678 20 0.593617 17.4164 0.0687599 13.9377C-0.126536 12.652 0.113516 11.4314 0.544793 10.2312C1.1673 8.50197 2.05427 6.90706 3.02667 5.35283C4.12114 3.60331 5.32546 1.93516 6.61523 0.32397C6.64778 0.283283 6.6844 0.238528 6.72102 0.197841C6.94479 -0.0625528 7.23367 -0.0706899 7.44117 0.20191C8.06774 1.01157 8.70245 1.8131 9.30054 2.64311C10.6798 4.54724 11.9533 6.5246 12.9583 8.65658C13.4546 9.71036 13.8859 10.7967 14.0731 11.9563C14.3375 13.5878 14.0202 15.1257 13.1658 16.5213C11.7824 18.7875 9.71962 19.9105 7.42896 20ZM6.6315 13.2379C6.65185 13.2786 6.65999 13.2908 6.65999 13.2989C6.65999 13.7546 6.66812 14.2062 6.65999 14.6619C6.65592 14.7555 6.60709 14.8694 6.54199 14.9386C6.35077 15.1502 6.1392 15.3414 5.9439 15.5489C5.78115 15.7238 5.78522 15.9558 5.93983 16.1185C6.09037 16.2812 6.32229 16.2935 6.50945 16.1551C6.5542 16.1226 6.59896 16.086 6.66812 16.029C6.66812 16.2528 6.66406 16.444 6.66812 16.6312C6.67219 16.9038 6.83901 17.0828 7.0872 17.0787C7.32725 17.0746 7.48999 16.8997 7.49406 16.6393C7.49813 16.4481 7.49406 16.2528 7.49406 16.0249C7.55509 16.0778 7.58764 16.1022 7.61612 16.1266C7.82362 16.2975 8.05147 16.3016 8.21828 16.1266C8.3851 15.9558 8.37696 15.7198 8.19794 15.5245C8.14911 15.4716 8.10029 15.4106 8.03926 15.3658C7.58357 15.0444 7.40862 14.6131 7.48999 14.0557C7.52661 13.7953 7.49813 13.5227 7.49813 13.2135C7.97009 13.4861 8.40544 13.7343 8.83265 13.9906C8.88147 14.0191 8.90589 14.0964 8.92623 14.1615C9.0076 14.4422 9.07677 14.723 9.15814 15.0037C9.22731 15.2397 9.44295 15.3577 9.65859 15.3007C9.88236 15.2397 10.0044 15.0362 9.95967 14.7962C9.95153 14.7474 9.94339 14.7026 9.92712 14.6212C10.1224 14.7311 10.2811 14.8369 10.452 14.9182C10.5496 14.963 10.6758 14.9956 10.7775 14.9793C10.9524 14.9549 11.0623 14.8287 11.0948 14.6497C11.1274 14.4748 11.0582 14.3283 10.9077 14.2306C10.7286 14.1167 10.5456 14.0109 10.3421 13.8929C10.692 13.775 10.8304 13.5756 10.7612 13.3396C10.688 13.0792 10.4723 12.9897 10.1346 13.0751C9.8905 13.1402 9.65045 13.2053 9.40633 13.2623C9.35344 13.2745 9.2802 13.2826 9.23545 13.2582C8.8001 13.0141 8.36882 12.7619 7.90906 12.4933C8.36882 12.2289 8.80417 11.9725 9.24765 11.7284C9.29648 11.6999 9.37785 11.7203 9.43888 11.7325C9.71555 11.8017 9.98815 11.883 10.2648 11.9481C10.5008 12.001 10.7042 11.8871 10.7693 11.6796C10.8385 11.4599 10.7327 11.2483 10.5049 11.1547C10.4601 11.1344 10.4154 11.1181 10.3462 11.0856C10.5374 10.9716 10.7042 10.8821 10.867 10.7804C11.0908 10.6421 11.1599 10.4102 11.046 10.2067C10.928 9.99517 10.6839 9.93414 10.4479 10.0643C10.277 10.1579 10.1102 10.2556 9.93525 10.3532C9.93118 10.3247 9.92305 10.3085 9.92305 10.2962C9.98001 9.96669 9.87016 9.75919 9.62197 9.71036C9.36564 9.66154 9.19069 9.80394 9.10525 10.1294C9.04422 10.3654 8.98319 10.6014 8.90995 10.8333C8.88554 10.9065 8.82858 10.992 8.76348 11.0286C8.39323 11.2524 8.01485 11.468 7.64053 11.6837C7.59985 11.7081 7.55102 11.7203 7.48592 11.7447C7.48592 11.289 7.48592 10.8618 7.48592 10.4346C7.48592 10.3817 7.47372 10.3207 7.48999 10.2718C7.5144 10.1986 7.54288 10.1213 7.59171 10.0643C7.79107 9.85277 8.00671 9.6534 8.20608 9.44183C8.37696 9.25874 8.36882 9.02276 8.20608 8.86001C8.0474 8.70134 7.82362 8.6932 7.63646 8.83967C7.59578 8.87222 7.55916 8.90477 7.48592 8.96173C7.48592 8.74609 7.48592 8.56707 7.48592 8.38398C7.48592 8.08697 7.33132 7.91202 7.07499 7.90795C6.81866 7.90795 6.65999 8.08697 6.65999 8.37584C6.65999 8.55893 6.65999 8.74609 6.65999 8.96173C6.59896 8.91698 6.57861 8.9007 6.55827 8.88036C6.33042 8.68506 6.10258 8.67692 5.9317 8.86408C5.76081 9.05124 5.78115 9.27502 5.99273 9.49066C6.16768 9.66968 6.3589 9.83649 6.52165 10.0277C6.59489 10.1091 6.65185 10.2352 6.65592 10.341C6.67219 10.7194 6.66405 11.1018 6.66405 11.4802C6.66405 11.5616 6.66405 11.647 6.66405 11.7325C6.61116 11.7203 6.59896 11.7244 6.58675 11.7162C6.19209 11.4884 5.79743 11.2687 5.41091 11.0327C5.32953 10.9839 5.26037 10.8821 5.23189 10.7886C5.14237 10.52 5.08542 10.2393 4.99997 9.96669C4.93081 9.74291 4.7233 9.63713 4.49953 9.69409C4.28796 9.74698 4.15776 9.95042 4.19438 10.1783C4.20251 10.2271 4.21472 10.2759 4.22693 10.3532C4.03163 10.2434 3.86482 10.1294 3.6858 10.0521C3.58001 10.0074 3.44981 9.98703 3.33996 10.0074C3.17314 10.0399 3.0755 10.1742 3.05109 10.341C3.02667 10.52 3.09991 10.6584 3.25045 10.756C3.4254 10.8659 3.60036 10.9676 3.81193 11.0896C3.73462 11.1141 3.70614 11.1222 3.67359 11.1303C3.4254 11.2198 3.30741 11.4233 3.36844 11.6511C3.4254 11.8708 3.64511 11.9929 3.90144 11.9319C4.17811 11.8668 4.4507 11.7854 4.72737 11.7162C4.78433 11.704 4.85757 11.6918 4.90233 11.7162C5.34174 11.9644 5.77709 12.2167 6.23684 12.4852C5.85032 12.709 5.49635 12.9124 5.13831 13.1199C5.06914 13.1606 4.99997 13.2135 4.92674 13.2379C4.86164 13.2582 4.78434 13.2623 4.71517 13.246C4.42629 13.1769 4.14149 13.0914 3.84854 13.0263C3.6329 12.9775 3.42947 13.1036 3.36844 13.303C3.30334 13.5186 3.40913 13.7261 3.6207 13.8156C3.67359 13.836 3.72241 13.8563 3.77531 13.8767C3.7631 13.897 3.75903 13.9051 3.75496 13.9092C3.60442 13.9987 3.44981 14.0882 3.29927 14.1778C3.04702 14.3283 2.96971 14.5602 3.09584 14.7758C3.2179 14.9874 3.46609 15.0403 3.71428 14.902C3.87702 14.8125 4.0357 14.7189 4.20659 14.6212C4.20659 14.6741 4.21065 14.6945 4.20659 14.7107C4.14556 14.9996 4.25541 15.2193 4.48325 15.2763C4.73551 15.3373 4.93487 15.199 5.01625 14.906C5.08541 14.6497 5.15051 14.3934 5.22375 14.1411C5.24002 14.0801 5.27257 14.0069 5.3214 13.9784C5.76488 13.7343 6.19209 13.4901 6.6315 13.2379Z" fill="#185FAA"/>
</svg>

