<svg width="25" height="13" viewBox="0 0 25 13" fill="none" xmlns="http://www.w3.org/2000/svg">
<path d="M6.80469 6.92188H2.13281V10.4219H7.59375V12H0.15625V0.625H7.53906V2.21875H2.13281V5.35938H6.80469V6.92188ZM12.3359 10.6406C12.8099 10.6406 13.2031 10.5026 13.5156 10.2266C13.8281 9.95052 13.9948 9.60938 14.0156 9.20312H15.8047C15.7839 9.72917 15.6198 10.2214 15.3125 10.6797C15.0052 11.1328 14.5885 11.4922 14.0625 11.7578C13.5365 12.0234 12.9688 12.1562 12.3594 12.1562C11.1771 12.1562 10.2396 11.7734 9.54688 11.0078C8.85417 10.2422 8.50781 9.1849 8.50781 7.83594V7.64062C8.50781 6.35417 8.85156 5.32552 9.53906 4.55469C10.2266 3.77865 11.1641 3.39062 12.3516 3.39062C13.3568 3.39062 14.1745 3.6849 14.8047 4.27344C15.4401 4.85677 15.7734 5.625 15.8047 6.57812H14.0156C13.9948 6.09375 13.8281 5.69531 13.5156 5.38281C13.2083 5.07031 12.8151 4.91406 12.3359 4.91406C11.7214 4.91406 11.2474 5.13802 10.9141 5.58594C10.5807 6.02865 10.4115 6.70312 10.4062 7.60938V7.91406C10.4062 8.83073 10.5703 9.51562 10.8984 9.96875C11.2318 10.4167 11.7109 10.6406 12.3359 10.6406ZM16.8828 7.69531C16.8828 6.86719 17.0469 6.1224 17.375 5.46094C17.7031 4.79427 18.1641 4.28385 18.7578 3.92969C19.3516 3.57031 20.0339 3.39062 20.8047 3.39062C21.9453 3.39062 22.8698 3.75781 23.5781 4.49219C24.2917 5.22656 24.6771 6.20052 24.7344 7.41406L24.7422 7.85938C24.7422 8.69271 24.5807 9.4375 24.2578 10.0938C23.9401 10.75 23.4818 11.2578 22.8828 11.6172C22.2891 11.9766 21.6016 12.1562 20.8203 12.1562C19.6276 12.1562 18.6719 11.7604 17.9531 10.9688C17.2396 10.1719 16.8828 9.11198 16.8828 7.78906V7.69531ZM18.7812 7.85938C18.7812 8.72917 18.9609 9.41146 19.3203 9.90625C19.6797 10.3958 20.1797 10.6406 20.8203 10.6406C21.4609 10.6406 21.9583 10.3906 22.3125 9.89062C22.6719 9.39062 22.8516 8.65885 22.8516 7.69531C22.8516 6.84115 22.6667 6.16406 22.2969 5.66406C21.9323 5.16406 21.4349 4.91406 20.8047 4.91406C20.1849 4.91406 19.6927 5.16146 19.3281 5.65625C18.9635 6.14583 18.7812 6.88021 18.7812 7.85938Z" fill="#1B6502"/>
</svg>
