<svg width="15" height="20" viewBox="0 0 15 20" fill="none" xmlns="http://www.w3.org/2000/svg">
<path d="M5.52077 0.156967C2.87338 0.710156 0.726805 2.83619 0.161975 5.50002C-0.31496 7.74941 0.272761 10.0077 1.77443 11.6959C2.50849 12.521 2.92944 13.6103 2.92944 14.6873V15.8592C2.92944 16.639 3.43989 17.3014 4.14407 17.5308C4.37564 18.899 5.56319 20 7.03119 20C8.49879 20 9.68666 18.8994 9.91831 17.5308C10.6225 17.3014 11.1329 16.639 11.1329 15.8592V14.6873C11.1329 13.6081 11.5553 12.532 12.3221 11.6571C13.4446 10.3766 14.0628 8.73352 14.0628 7.03071C14.0628 2.59438 10.0021 -0.779246 5.52077 0.156967ZM7.03119 18.8281C6.27795 18.8281 5.61753 18.3098 5.37365 17.6132H8.68868C8.44484 18.3098 7.78442 18.8281 7.03119 18.8281ZM9.96101 15.8592C9.96101 16.1823 9.69814 16.4452 9.37504 16.4452H4.68733C4.36423 16.4452 4.10137 16.1823 4.10137 15.8592V15.2733H9.96101V15.8592ZM11.4408 10.8847C10.6236 11.817 10.1208 12.9413 9.99323 14.1013H4.06926C3.94183 12.9407 3.44032 11.8053 2.65013 10.917C1.39859 9.51004 0.909547 7.62421 1.30843 5.74311C1.77404 3.54716 3.56318 1.76329 5.76051 1.30417C9.51161 0.520265 12.8908 3.33727 12.8908 7.03071C12.8908 8.44921 12.3759 9.81791 11.4408 10.8847Z" fill="#FFC226"/>
</svg>
