<svg width="18" height="25" viewBox="0 0 18 25" fill="none" xmlns="http://www.w3.org/2000/svg">
<path d="M6.63719 16.21V6.55371C6.63719 6.14916 6.30932 5.82129 5.90477 5.82129C5.50041 5.82129 5.17235 6.14916 5.17235 6.55371V16.21C3.88489 16.5373 2.92969 17.7062 2.92969 19.0943C2.92969 20.735 4.26426 22.0698 5.90477 22.0698C7.54528 22.0698 8.88004 20.735 8.88004 19.0943C8.88004 17.7062 7.92465 16.5373 6.63719 16.21ZM5.90477 20.605C5.07202 20.605 4.39453 19.9273 4.39453 19.0943C4.39453 18.2612 5.07202 17.5835 5.90477 17.5835C6.73771 17.5835 7.4152 18.2612 7.4152 19.0943C7.4152 19.9273 6.73771 20.605 5.90477 20.605Z" fill="#148EFF"/>
<path d="M9.53979 14.4398V3.63541C9.53979 1.63078 7.9092 0 5.90477 0C3.90053 0 2.26994 1.63078 2.26994 3.63541V14.4398C0.841713 15.5561 0 17.268 0 19.0941C0 22.3507 2.64893 25 5.90477 25C9.1608 25 11.8097 22.3507 11.8097 19.0941C11.8097 17.268 10.968 15.5561 9.53979 14.4398ZM5.90477 23.5352C3.4565 23.5352 1.46484 21.5429 1.46484 19.0941C1.46484 17.621 2.19345 16.2466 3.41396 15.4175C3.61462 15.2811 3.73478 15.0541 3.73478 14.8115V3.63541C3.73478 2.43855 4.70829 1.46484 5.90477 1.46484C7.10144 1.46484 8.07495 2.43855 8.07495 3.63541V14.8115C8.07495 15.0541 8.19511 15.2811 8.39577 15.4175C9.61628 16.2466 10.3449 17.621 10.3449 19.0941C10.3449 21.5429 8.35304 23.5352 5.90477 23.5352Z" fill="#148EFF"/>
<path d="M15.1667 10.0083L15.1667 -1.09278e-07L13.5001 -1.82131e-07L13.5001 10.0083L11.0001 10.0083L14.3334 13.3333L17.6667 10.0083L15.1667 10.0083Z" fill="#148EFF"/>
</svg>
